<svg t="1579241415444" class="icon" viewBox="0 0 1024 1024" version="1.1" xmlns="http://www.w3.org/2000/svg" p-id="3086" width="16" height="16"><path d="M537.6 696.32c-97.28 0-174.08-79.36-174.08-174.08s79.36-174.08 174.08-174.08 174.08 79.36 174.08 174.08-76.8 174.08-174.08 174.08z m0-299.52c-69.12 0-122.88 56.32-122.88 122.88s56.32 122.88 122.88 122.88 122.88-56.32 122.88-122.88-53.76-122.88-122.88-122.88zM537.6 309.76c-15.36 0-25.6-10.24-25.6-25.6V192c0-15.36 10.24-25.6 25.6-25.6s25.6 10.24 25.6 25.6v94.72c0 12.8-12.8 23.04-25.6 23.04zM371.2 378.88c-7.68 0-12.8-2.56-17.92-7.68l-66.56-66.56c-10.24-10.24-10.24-25.6 0-35.84s25.6-10.24 35.84 0l66.56 66.56c10.24 10.24 10.24 25.6 0 35.84-5.12 5.12-12.8 7.68-17.92 7.68zM302.08 545.28H207.36c-15.36 0-25.6-10.24-25.6-25.6s10.24-25.6 25.6-25.6h94.72c15.36 0 25.6 10.24 25.6 25.6s-12.8 25.6-25.6 25.6zM304.64 778.24c-7.68 0-12.8-2.56-17.92-7.68-10.24-10.24-10.24-25.6 0-35.84l66.56-66.56c10.24-10.24 25.6-10.24 35.84 0 10.24 10.24 10.24 25.6 0 35.84l-66.56 66.56c-5.12 5.12-12.8 7.68-17.92 7.68zM537.6 875.52c-15.36 0-25.6-10.24-25.6-25.6v-94.72c0-15.36 10.24-25.6 25.6-25.6s25.6 10.24 25.6 25.6v94.72c0 15.36-12.8 25.6-25.6 25.6zM770.56 778.24c-7.68 0-12.8-2.56-17.92-7.68l-66.56-66.56c-10.24-10.24-10.24-25.6 0-35.84 10.24-10.24 25.6-10.24 35.84 0l66.56 66.56c10.24 10.24 10.24 25.6 0 35.84-5.12 5.12-12.8 7.68-17.92 7.68zM867.84 545.28h-94.72c-15.36 0-25.6-10.24-25.6-25.6s10.24-25.6 25.6-25.6h94.72c15.36 0 25.6 10.24 25.6 25.6s-12.8 25.6-25.6 25.6zM704 378.88c-7.68 0-12.8-2.56-17.92-7.68-10.24-10.24-10.24-25.6 0-35.84l66.56-66.56c10.24-10.24 25.6-10.24 35.84 0s10.24 25.6 0 35.84l-66.56 66.56c-5.12 5.12-10.24 7.68-17.92 7.68z" fill="#333333" p-id="3087"></path></svg>